<?xml version="1.0" standalone="no"?>
<!DOCTYPE svg PUBLIC "-//W3C//DTD SVG 20010904//EN"
 "http://www.w3.org/TR/2001/REC-SVG-20010904/DTD/svg10.dtd">
<svg version="1.0" xmlns="http://www.w3.org/2000/svg"
 width="900.000000pt" height="900.000000pt" viewBox="0 0 900.000000 900.000000"
 preserveAspectRatio="xMidYMid meet">
<metadata>
Created by potrace 1.14, written by Peter Selinger 2001-2017
</metadata>
<g transform="translate(0.000000,900.000000) scale(0.100000,-0.100000)"
fill="#000000" stroke="none">
<path d="M4900 8665 c-14 -27 -16 -18 62 -355 16 -69 38 -166 48 -216 11 -51
28 -129 39 -175 11 -46 34 -145 51 -219 17 -74 42 -184 56 -245 26 -113 28
-122 64 -285 28 -126 76 -336 100 -435 43 -180 49 -209 46 -212 -2 -2 -66 7
-142 21 -221 40 -432 65 -674 78 -212 11 -226 13 -250 35 -14 13 -20 23 -14
23 5 0 15 -5 21 -11 6 -6 21 -8 34 -4 22 7 22 8 4 21 -22 16 -54 18 -75 4 -13
-8 -12 -12 8 -25 12 -9 22 -20 22 -24 0 -5 -64 -12 -142 -15 -263 -13 -531
-49 -723 -97 -156 -39 -286 -82 -276 -92 6 -6 44 2 103 21 128 42 229 67 393
96 139 24 325 44 240 26 -36 -8 -35 -8 15 -4 30 2 170 7 310 10 290 8 504 -4
770 -41 271 -38 264 -37 205 -20 l-50 15 45 -5 c25 -3 75 -10 111 -16 l66 -12
11 -46 c6 -25 15 -57 18 -70 6 -21 5 -22 -13 -12 -11 5 -23 8 -26 5 -3 -3 -12
-2 -19 2 -7 5 -22 9 -33 10 -20 2 -75 10 -125 19 -14 3 -47 7 -75 11 -27 3
-63 8 -80 10 -16 3 -48 7 -70 9 -84 7 -181 17 -203 20 -136 22 -755 23 -790 1
-4 -2 -46 -8 -92 -11 -47 -4 -87 -8 -90 -10 -3 -2 -30 -6 -60 -10 -30 -4 -57
-8 -60 -10 -3 -2 -29 -6 -59 -10 -30 -4 -65 -11 -78 -16 -13 -5 -23 -6 -23 -4
0 2 -11 0 -25 -5 -14 -5 -37 -12 -52 -14 -14 -3 -50 -11 -80 -17 -47 -11 -52
-14 -39 -27 12 -13 33 -10 163 21 279 67 494 90 843 90 353 0 575 -21 922 -89
141 -28 188 -41 191 -53 50 -170 93 -322 121 -431 19 -74 49 -187 66 -250 17
-63 33 -124 35 -135 3 -11 9 -33 13 -50 7 -24 4 -33 -11 -46 -15 -12 -20 -27
-20 -63 1 -35 -2 -46 -12 -43 -7 3 -18 0 -25 -6 -10 -9 -11 -9 -6 1 10 17 -19
15 -34 -3 -9 -11 -17 -12 -32 -4 -15 8 -19 8 -13 0 4 -7 1 -20 -6 -29 -7 -9
-9 -14 -5 -10 5 4 15 3 23 -3 11 -10 11 -15 1 -28 -11 -14 -11 -14 4 -3 14 11
20 10 37 -7 13 -13 21 -16 21 -8 0 8 3 8 9 -2 5 -8 20 -15 33 -15 12 -1 28 -4
33 -7 6 -3 39 -6 74 -6 50 -1 67 3 83 19 11 11 17 26 14 35 -3 8 -6 21 -6 29
0 8 -5 14 -10 14 -16 0 -55 39 -47 46 4 4 -2 14 -13 21 -28 19 -51 68 -43 89
5 13 3 15 -7 9 -9 -5 -11 -4 -6 4 4 7 2 35 -5 64 -7 29 -14 55 -15 60 -1 4 -2
8 -4 10 -1 1 -4 16 -6 32 -3 17 -14 64 -25 105 -12 41 -22 83 -24 94 -3 10
-10 25 -17 34 -10 12 -10 14 0 8 17 -10 15 -1 -4 18 -8 9 -10 16 -4 16 8 0 8
6 0 20 -6 11 -8 20 -6 20 3 0 -1 18 -9 39 -7 22 -11 42 -8 45 4 3 1 6 -5 6 -6
0 -9 7 -5 17 5 12 3 14 -8 8 -11 -6 -11 -5 -2 5 11 12 7 44 -6 36 -3 -2 -6 10
-5 27 1 41 -5 58 -20 50 -8 -4 -8 -3 0 6 8 9 7 27 -3 69 -8 31 -16 71 -19 87
-3 17 -12 59 -20 94 -9 36 -17 72 -19 80 -2 9 -13 52 -24 96 -12 44 -24 89
-27 100 -3 11 -6 25 -8 30 -2 6 -6 27 -10 47 -5 23 -12 35 -19 31 -6 -3 -7 -1
-3 5 4 6 1 31 -5 54 -17 58 -16 55 -18 79 -1 12 -5 17 -13 13 -7 -5 -8 -3 -2
7 11 19 14 39 5 39 -5 0 -12 -10 -18 -22 -8 -19 -10 -20 -16 -4 -4 9 -3 15 2
12 10 -6 26 23 22 39 -9 35 -22 104 -25 125 -2 14 -6 35 -10 47 -4 12 -9 32
-12 45 -8 38 -12 53 -14 56 -4 4 -6 14 -14 72 -5 30 -10 62 -11 71 -2 9 -6 34
-9 55 -4 22 -11 55 -16 74 -5 19 -11 46 -14 60 -3 14 -8 36 -11 50 -3 14 -8
36 -11 50 -4 21 -22 98 -40 175 -3 11 -7 31 -10 45 -3 14 -11 50 -19 80 -8 30
-17 69 -20 85 -3 17 -7 35 -9 40 -1 6 -8 30 -15 55 -50 187 -65 237 -75 249
-8 11 -8 13 1 7 9 -5 11 -2 7 8 -3 9 -9 14 -13 11 -4 -2 -5 10 -3 27 3 20 1
29 -6 24 -6 -4 -8 2 -5 14 8 29 -17 111 -31 103 -8 -5 -8 -3 0 8 12 15 2 59
-14 59 -5 0 -15 -11 -22 -25z m51 -138 c-10 -9 -11 -8 -5 6 3 10 9 15 12 12 3
-3 0 -11 -7 -18z m277 -1213 c-11 -11 -18 -13 -23 -5 -4 7 -1 10 7 9 7 -2 12
5 11 16 -1 13 2 15 10 7 8 -8 7 -15 -5 -27z m9 -59 c0 -8 -4 -12 -9 -9 -5 3
-6 10 -3 15 9 13 12 11 12 -6z m15 -77 c-8 -8 -9 -4 -5 13 4 13 8 18 11 10 2
-7 -1 -18 -6 -23z m19 -32 c-6 -7 -7 -17 -3 -21 4 -5 1 -5 -6 -1 -9 6 -10 11
-3 20 6 7 7 17 3 21 -4 5 -1 5 6 1 9 -6 10 -11 3 -20z m28 -90 c-1 -20 -2 -20
-6 -1 -3 11 -12 29 -22 40 -16 20 -16 20 7 1 12 -11 21 -29 21 -40z m-1 -39
c-1 -2 4 -12 12 -22 8 -11 10 -16 3 -12 -6 4 -13 4 -16 0 -2 -5 -2 -3 -1 4 2
7 -1 15 -7 18 -5 4 -7 11 -3 16 3 6 8 8 11 5 2 -2 3 -6 1 -9z m22 -117 c6 -11
8 -20 6 -20 -3 0 -10 9 -16 20 -6 11 -8 20 -6 20 3 0 10 -9 16 -20z m30 -75
c0 -5 -5 -3 -10 5 -5 8 -10 20 -10 25 0 6 5 3 10 -5 5 -8 10 -19 10 -25z m5
-17 c5 4 5 1 1 -6 -6 -10 -11 -10 -22 -1 -8 6 -14 14 -14 16 0 3 6 0 13 -6 8
-6 18 -7 22 -3z m-1228 -204 c-3 -3 -12 -4 -19 -1 -8 3 -5 6 6 6 11 1 17 -2
13 -5z m620 -5 c62 -5 161 -19 220 -29 115 -21 79 -19 -107 5 -63 8 -173 19
-245 24 -105 6 -116 8 -55 10 41 0 125 -4 187 -10z m-744 -6 c-7 -2 -21 -2
-30 0 -10 3 -4 5 12 5 17 0 24 -2 18 -5z m1728 -1280 c5 -13 3 -28 -6 -39 -12
-17 -14 -16 -23 16 -5 19 -7 39 -5 43 8 13 26 2 34 -20z m-191 -67 c0 -11 -19
-15 -25 -6 -3 5 1 10 9 10 9 0 16 -2 16 -4z"/>
<path d="M1238 7717 c-5 -10 -7 -24 -5 -32 5 -10 152 -128 431 -344 33 -25
114 -89 180 -142 222 -176 308 -239 319 -232 5 3 7 2 4 -4 -4 -6 39 -46 95
-89 56 -43 142 -112 192 -152 116 -92 101 -81 171 -132 33 -25 63 -44 68 -42
4 1 7 -5 7 -13 0 -8 3 -15 8 -15 4 0 19 -10 33 -23 15 -12 61 -49 103 -82 88
-68 90 -59 -29 -124 -38 -22 -101 -62 -139 -90 -38 -27 -73 -48 -79 -44 -5 3
-7 33 -5 67 3 61 3 61 -25 64 -16 2 -36 0 -45 -3 -13 -6 -9 -10 17 -19 37 -13
44 -30 35 -84 -5 -24 -11 -32 -22 -27 -8 3 -24 2 -36 -2 -18 -6 -17 -8 12 -13
18 -3 32 -9 31 -15 -1 -5 -12 -8 -23 -7 -16 3 -18 1 -9 -9 9 -9 7 -18 -11 -38
-149 -166 -189 -230 -235 -368 -56 -168 -60 -335 -14 -513 14 -52 27 -108 29
-125 7 -54 -35 48 -53 128 -21 93 -23 319 -4 405 8 34 12 65 9 67 -2 2 -24
-35 -49 -83 -24 -48 -48 -90 -54 -94 -5 -4 -7 -8 -3 -8 4 0 0 -16 -8 -35 -8
-19 -11 -35 -8 -35 4 0 2 -6 -4 -12 -5 -7 -12 -29 -15 -48 -4 -19 -9 -51 -13
-70 -4 -19 -8 -58 -8 -87 -1 -35 -4 -48 -12 -42 -14 11 -84 -11 -84 -26 0 -7
8 -19 17 -26 15 -12 16 -12 10 5 -6 14 -4 17 9 12 8 -3 30 -6 47 -6 l32 0 -3
-53 c-3 -49 -6 -54 -33 -64 l-30 -12 3 47 c3 40 7 47 28 53 23 7 23 7 -6 8
-31 1 -32 0 -38 -52 -4 -30 -2 -65 4 -81 13 -36 13 -36 -10 -36 -11 0 -20 -4
-20 -10 0 -5 16 -10 35 -10 29 0 35 4 35 20 0 11 -7 23 -15 26 -23 9 -18 18
16 31 l32 12 -6 -39 c-3 -27 -1 -40 7 -40 7 0 11 -14 10 -37 -2 -29 5 -46 32
-77 39 -46 41 -52 16 -65 -14 -7 -32 -3 -71 15 -29 13 -55 24 -57 24 -2 0 13
-15 34 -34 29 -28 34 -37 25 -47 -10 -10 -20 -9 -50 6 -21 11 -41 21 -45 23
-5 2 -8 -17 -8 -43 0 -39 -3 -46 -17 -43 -10 2 -24 16 -31 31 -13 26 -17 28
-70 25 l-57 -3 -2 -55 c-2 -46 -1 -51 8 -30 5 14 8 33 5 43 -3 11 0 17 7 14
17 -5 17 -183 0 -205 -20 -27 -16 -44 8 -37 14 5 25 2 30 -6 8 -12 10 -12 18
0 7 10 19 12 47 6 23 -5 32 -10 22 -12 -21 -5 -23 -19 -5 -27 6 -3 0 -4 -15
-3 -15 2 -30 6 -34 10 -4 4 -14 7 -22 7 -25 0 6 -28 39 -35 34 -8 49 -25 20
-25 -26 0 -38 -19 -20 -32 11 -7 9 -9 -6 -5 -11 3 -29 8 -39 13 -16 6 -18 4
-11 -12 4 -10 10 -49 13 -86 4 -68 16 -91 20 -41 1 14 4 28 6 31 9 8 4 -99
-10 -228 -8 -74 -17 -201 -21 -282 l-6 -148 -34 0 c-18 0 -33 -4 -33 -10 0 -5
8 -10 19 -10 26 0 48 -27 33 -42 -13 -13 -107 2 -103 17 1 6 12 9 24 7 12 -1
18 1 12 5 -5 5 -10 15 -10 23 0 11 -13 16 -47 18 l-48 3 0 -57 c0 -32 3 -55 6
-52 3 3 5 24 6 47 0 22 4 38 9 35 5 -3 8 -26 7 -52 -1 -26 2 -62 6 -80 8 -35
-7 -67 -27 -55 -7 4 -8 -1 -4 -13 7 -18 6 -18 -9 1 -15 18 -16 18 -10 2 3 -10
6 -23 6 -28 0 -5 14 -9 31 -9 29 0 31 -2 25 -27 -3 -16 -11 -59 -17 -96 -9
-58 -8 -72 5 -93 9 -13 19 -56 22 -96 4 -40 8 -75 10 -76 1 -2 17 -5 35 -5 29
-2 33 2 46 41 8 23 18 42 22 42 11 0 61 -39 84 -65 27 -31 46 -70 83 -174 120
-331 423 -688 811 -955 l83 -57 -40 63 c-21 35 -55 101 -75 148 -41 98 -100
184 -118 174 -7 -4 -9 -4 -5 1 12 13 -11 34 -30 28 -13 -4 -14 -3 -3 5 9 7 10
12 2 16 -6 4 -11 4 -11 -1 0 -4 -5 0 -11 10 -6 9 -15 14 -21 11 -6 -4 -8 -3
-5 3 4 6 -5 15 -18 21 -14 7 -25 16 -25 22 0 5 -4 9 -10 7 -5 -1 -22 10 -37
25 -213 208 -277 272 -320 323 -54 65 -143 192 -185 265 -33 57 -67 96 -104
121 -16 10 -24 19 -19 19 6 -1 28 -13 50 -28 27 -19 59 -60 101 -128 65 -108
156 -234 213 -299 80 -88 168 -174 196 -192 17 -10 85 -62 152 -115 136 -110
158 -139 231 -305 54 -122 92 -178 141 -206 31 -18 31 -18 33 5 0 13 0 33 -1
44 -1 12 4 35 10 50 7 16 12 32 11 37 -1 4 12 7 28 7 36 0 37 -10 5 -75 -31
-62 -31 -80 -3 -99 28 -20 94 -20 218 -1 187 29 223 24 470 -59 352 -120 632
-184 980 -226 91 -11 188 -28 215 -36 62 -20 170 -77 210 -110 29 -24 28 -24
-30 5 -57 27 -83 35 -165 46 -60 8 -193 25 -245 30 -47 5 -124 17 -190 30 -33
6 -80 14 -110 19 -11 2 -33 6 -50 10 -41 9 -76 16 -105 22 -14 3 -50 12 -80
20 -30 8 -95 25 -145 39 -49 13 -109 31 -132 39 -24 8 -43 13 -43 9 0 -3 -6 0
-13 6 -8 6 -17 8 -20 4 -4 -3 -7 -1 -7 5 0 7 -7 12 -15 12 -17 0 -129 35 -160
50 -49 24 -242 80 -274 80 -20 -1 -81 -7 -135 -14 -55 -7 -107 -11 -117 -9
-11 3 -35 2 -56 -2 -27 -5 -33 -9 -22 -16 17 -10 -1 -12 -26 -2 -15 5 -14 8 6
20 l24 14 -24 -7 c-15 -4 -21 -2 -17 4 3 6 -10 19 -29 31 l-35 20 15 -29 c8
-16 15 -48 15 -70 0 -48 12 -75 40 -90 29 -15 77 12 94 54 l14 34 114 -57
c257 -130 631 -267 859 -315 41 -9 126 -27 189 -40 174 -37 554 -81 600 -69
10 3 21 12 23 22 3 11 5 9 6 -6 1 -22 3 -22 148 -21 96 0 140 4 129 10 -9 5
-13 14 -10 20 4 7 2 8 -5 4 -6 -4 -9 -11 -6 -15 2 -5 -7 -8 -20 -8 -22 0 -24
2 -13 15 11 13 11 14 -2 7 -8 -6 -26 -10 -40 -10 -14 0 -31 -4 -37 -8 -7 -5
-13 -4 -13 0 0 5 6 15 13 23 10 12 9 12 -4 2 -9 -6 -19 -9 -23 -5 -4 4 -4 0
-1 -8 4 -10 0 -16 -9 -16 -8 0 -13 8 -11 19 2 10 0 16 -6 13 -5 -4 -7 -10 -4
-15 3 -5 1 -11 -5 -15 -5 -3 -10 0 -10 8 0 8 -7 20 -16 27 -8 8 -14 9 -13 4 1
-5 1 -16 0 -24 -1 -13 -2 -13 -11 0 -9 13 -10 13 -10 0 0 -13 -2 -13 -9 0 -6
8 -7 19 -5 25 3 5 -5 -1 -17 -15 -22 -24 -22 -25 -16 -3 3 13 1 26 -4 29 -5 3
-9 2 -8 -3 1 -4 1 -17 -1 -28 l-1 -20 -8 20 c-5 11 -6 24 -3 29 3 5 0 6 -7 2
-6 -4 -9 -11 -6 -16 3 -4 -2 -10 -10 -14 -8 -3 -17 -1 -21 5 -4 7 -10 6 -19
-1 -8 -6 -16 -7 -19 -2 -3 5 -20 8 -37 7 -19 -2 -33 3 -36 12 -3 8 -12 12 -19
9 -7 -3 -16 -1 -19 5 -4 5 -11 7 -16 4 -19 -12 -21 26 -3 48 18 21 18 21 0 7
-10 -8 -22 -23 -26 -35 l-9 -20 0 21 c-1 11 5 26 12 34 10 12 9 12 -4 2 -21
-15 -32 -3 -16 17 10 14 10 14 -3 4 -9 -6 -17 -24 -18 -39 -3 -39 -12 -43 -12
-6 0 17 -4 33 -8 36 -5 3 -7 -9 -5 -27 l3 -32 -10 32 c-6 18 -15 35 -20 38 -5
3 -7 0 -4 -8 3 -8 -2 -14 -11 -14 -9 0 -14 6 -11 14 3 8 2 11 -4 8 -5 -3 -7
-19 -5 -35 2 -17 0 -28 -5 -25 -5 3 -6 13 -3 23 6 14 4 15 -8 5 -12 -10 -15
-8 -16 10 -2 18 0 19 8 7 9 -12 10 -12 5 3 -3 10 -6 24 -7 30 0 7 -5 1 -11
-13 -6 -14 -10 -29 -9 -34 1 -5 -4 -4 -12 2 -10 9 -17 9 -27 -1 -10 -9 -11 -9
-6 1 5 7 -1 15 -15 20 l-23 9 22 5 c12 4 20 3 18 -1 -3 -4 6 -7 18 -7 12 0 23
6 23 13 0 6 -4 10 -9 7 -4 -3 -8 1 -8 8 0 10 -2 10 -9 -1 -7 -11 -9 -11 -14 0
-4 10 -6 10 -6 2 -1 -7 -8 -13 -17 -13 -9 0 -23 -8 -30 -18 -13 -16 -14 -16
-8 1 4 10 16 23 28 27 18 7 18 9 3 9 -12 1 -16 6 -11 14 4 6 -2 3 -13 -8 -11
-11 -19 -22 -17 -25 1 -3 -2 -12 -7 -20 -8 -12 -9 -11 -7 5 3 20 -18 28 -37
14 -7 -5 -11 2 -12 19 -1 24 -1 24 7 7 6 -13 9 -15 9 -5 1 9 4 11 9 5 8 -13
27 -13 39 -2 4 5 3 8 -2 7 -22 -5 -36 1 -29 12 4 7 3 8 -4 4 -7 -4 -18 -4 -24
1 -14 8 -24 11 -53 15 -11 2 -23 7 -26 11 -3 5 -9 2 -12 -6 -4 -12 0 -15 15
-12 44 9 74 -35 43 -62 -4 -5 -5 -3 -2 3 4 7 0 17 -8 24 -8 7 -12 16 -9 21 10
16 -9 9 -22 -9 -13 -16 -14 -16 -7 2 4 13 3 17 -5 12 -6 -3 -13 -2 -17 3 -3 5
-14 8 -25 6 -13 -3 -24 4 -31 18 -9 20 -9 21 4 4 11 -13 16 -15 19 -5 4 11 8
10 21 -1 11 -8 17 -9 17 -3 0 19 -62 31 -86 17 -17 -11 -21 -11 -21 0 0 8 5
11 10 8 6 -3 7 -1 3 6 -10 16 -39 -6 -29 -23 3 -6 2 -7 -3 -3 -5 5 -9 15 -9
24 0 9 -10 19 -22 24 -13 5 -23 4 -23 0 0 -5 -7 -12 -16 -15 -13 -5 -14 -4 -6
7 7 8 9 17 5 20 -3 4 -12 -1 -20 -11 -12 -16 -13 -16 -6 2 5 16 3 18 -11 13
-10 -4 -15 -3 -11 3 3 6 -1 10 -9 10 -10 0 -13 -7 -11 -21 3 -12 1 -18 -3 -15
-4 4 -7 13 -7 19 0 17 -48 39 -56 26 -4 -7 -9 -4 -13 6 -3 10 -11 13 -18 8
-17 -10 -38 -13 -37 -5 5 33 -24 44 -51 19 -11 -9 -11 -8 0 7 14 18 13 19 -3
13 -10 -4 -16 -3 -12 2 3 5 0 12 -5 14 -12 6 -6 5 73 -19 31 -9 57 -21 57 -26
0 -5 4 -7 8 -4 5 3 49 -6 98 -20 118 -33 287 -74 349 -85 179 -31 382 -60 520
-74 184 -19 259 -34 340 -70 32 -14 60 -23 62 -21 3 3 25 -4 50 -15 31 -13 50
-16 62 -10 17 9 41 71 41 104 0 9 4 18 8 21 5 3 8 -25 8 -62 l-1 -67 -35 -6
-35 -5 37 -8 c43 -9 71 10 82 59 4 17 9 39 12 50 5 20 5 20 -10 1 -16 -19 -16
-19 -30 -1 -9 13 -11 29 -5 53 5 25 4 41 -7 56 -21 31 -17 65 13 109 30 44 62
65 72 49 5 -8 19 -8 49 0 40 10 42 11 23 25 -11 7 -18 20 -15 28 5 11 -1 15
-21 15 -27 0 -28 -1 -11 -19 10 -11 15 -24 12 -30 -9 -14 -69 55 -71 80 -1 13
5 19 18 19 20 0 20 1 -2 24 l-23 25 45 93 c51 103 92 237 132 438 15 73 32
144 38 157 8 19 7 27 -12 46 -21 23 -21 24 -2 42 13 11 27 15 38 11 14 -6 13
-2 -5 17 -45 47 -14 135 61 174 30 15 31 15 18 -1 -13 -15 -12 -16 13 -6 15 5
44 10 64 10 28 0 33 3 22 10 -12 8 -11 10 8 10 38 0 72 -43 72 -91 0 -36 -6
-48 -40 -80 -22 -22 -52 -42 -65 -45 -14 -3 -25 -11 -25 -17 0 -6 -13 -25 -30
-42 -83 -85 -175 -436 -168 -642 2 -72 -1 -106 -10 -115 -6 -6 -12 -21 -12
-33 0 -12 -7 -30 -15 -41 -20 -26 -19 -34 4 -34 11 0 33 -12 50 -26 78 -65 -4
-194 -124 -194 -26 0 -35 -4 -36 -17 0 -10 -2 -47 -4 -83 -2 -36 -3 -68 -4
-72 -1 -4 -11 -9 -23 -11 -14 -3 -9 -5 15 -6 22 0 37 4 37 11 0 6 3 9 6 5 9
-9 79 28 139 74 69 52 133 75 330 119 174 40 307 78 429 124 37 14 72 23 77
20 5 -3 9 -16 9 -30 0 -16 6 -24 18 -24 20 0 151 80 222 136 68 53 221 197
215 202 -3 3 -14 -3 -25 -13 -11 -10 -20 -15 -20 -12 0 3 -37 -19 -82 -49 -76
-51 -329 -183 -360 -188 -7 -1 -22 -7 -33 -13 -64 -35 -273 -95 -509 -148 -83
-18 -160 -36 -171 -40 -17 -6 -16 -3 5 16 27 24 170 93 210 102 71 15 297 80
385 111 147 51 240 97 328 160 87 62 102 69 66 29 -22 -24 -18 -23 46 12 39
22 94 52 124 67 33 17 46 28 33 28 -51 0 -26 51 82 165 l57 60 -36 -66 c-29
-55 -39 -85 -44 -141 -1 -3 -9 -9 -18 -11 -16 -4 65 -8 211 -11 58 -1 97 35
121 112 6 21 5 22 -13 11 -16 -10 -23 -10 -36 0 -13 11 -16 4 -27 -48 -6 -34
-16 -61 -20 -61 -12 0 -11 17 0 58 6 18 6 43 2 54 -7 18 4 116 14 126 10 10
46 -11 41 -24 -3 -8 -2 -14 2 -14 5 0 14 -17 22 -37 l14 -38 9 35 c19 77 19
91 3 109 -9 10 -13 21 -9 26 5 4 0 5 -10 2 -12 -5 -54 10 -117 41 -58 28 -96
42 -92 34 3 -10 0 -13 -9 -10 -16 6 -14 69 2 100 12 21 42 17 104 -15 22 -11
51 -25 65 -32 125 -58 129 -60 124 -77 -8 -26 5 -22 15 5 5 12 5 24 0 27 -12
8 19 50 45 60 20 8 20 9 -9 20 -16 6 -38 19 -47 27 -15 13 -18 14 -18 2 0 -8
7 -25 16 -37 14 -21 14 -22 -5 -22 -12 0 -21 4 -21 9 0 5 -20 6 -44 4 -47 -6
-66 8 -46 32 17 20 50 19 65 -1 11 -15 12 -15 18 5 4 17 1 21 -20 21 -13 0
-33 4 -43 10 -17 9 -15 16 26 115 25 57 70 193 100 302 30 109 64 222 75 252
16 44 17 56 7 69 -11 13 -10 14 9 4 30 -17 63 -15 63 3 0 10 -10 15 -29 15
-37 0 -48 16 -22 32 18 11 18 13 3 25 -16 12 -16 14 1 27 10 8 27 12 37 9 24
-6 26 -23 3 -23 -27 0 -3 -15 25 -15 15 -1 37 -4 50 -9 19 -6 22 -4 22 18 0
14 -4 27 -9 30 -5 3 -7 15 -4 26 4 15 0 20 -16 20 -12 0 -19 -4 -16 -10 12
-19 -31 -8 -130 33 -75 32 -100 47 -105 64 -5 21 -7 21 -80 -24 -281 -171
-653 -292 -1075 -348 -159 -22 -849 -32 -1015 -15 -558 55 -1093 191 -1551
392 -65 29 -117 53 -116 55 1 1 20 -2 42 -7 55 -13 125 -13 105 0 -11 7 -7 10
18 10 17 0 32 4 32 10 0 5 15 14 33 19 l32 9 -31 1 c-43 1 -291 20 -340 26
l-41 4 -14 -87 c-14 -88 -31 -114 -37 -54 -4 35 -22 35 -23 -1 0 -22 0 -22
-10 1 -5 13 -13 21 -17 18 -9 -5 13 128 23 144 3 5 -8 16 -25 25 -16 8 -30 23
-30 31 0 14 3 14 15 4 24 -20 29 -5 8 27 -17 27 -17 28 2 13 17 -14 18 -13 12
4 -7 16 -5 17 9 6 14 -12 15 -10 9 22 -5 26 -2 43 9 60 22 31 20 45 -4 23 -11
-10 -20 -31 -20 -46 0 -15 -5 -31 -11 -35 -8 -5 -10 1 -7 19 3 15 1 24 -3 21
-5 -3 -9 -12 -9 -20 0 -22 -17 -16 -24 9 -3 13 -29 36 -61 56 -30 18 -55 37
-55 40 0 17 -92 99 -222 197 -159 120 -373 326 -432 417 -21 32 -36 60 -34 63
2 2 44 -39 93 -92 121 -131 274 -267 440 -392 77 -58 163 -124 190 -146 28
-22 41 -30 30 -17 -11 13 -62 58 -114 100 -52 42 -103 84 -115 94 -21 18 -21
18 4 6 13 -7 49 -27 80 -46 63 -39 44 -23 -120 99 -64 47 -164 132 -221 188
l-104 102 101 -93 c56 -52 141 -123 190 -158 l89 -63 -65 61 c-54 51 -60 59
-35 50 17 -6 53 -24 81 -40 73 -41 75 -36 7 19 -179 143 -339 312 -440 461
-54 79 -57 88 -63 160 -5 72 -17 108 -46 141 -7 8 -19 35 -27 60 -17 50 -17
50 55 -72 28 -48 76 -118 105 -155 113 -143 338 -352 498 -464 72 -51 61 -36
-17 23 -88 67 -307 268 -368 339 -94 109 -89 108 25 -7 250 -251 514 -436 895
-623 540 -266 1221 -444 1840 -482 96 -6 227 -14 290 -18 l115 -8 -85 -2
c-225 -3 -587 30 -904 84 -82 14 -151 23 -153 21 -10 -9 361 -71 592 -98 173
-20 753 -17 935 5 79 10 147 21 150 24 3 3 -17 3 -45 -1 -27 -4 -88 -9 -135
-11 -79 -4 -77 -3 35 11 535 67 992 242 1282 492 78 67 201 214 239 286 19 33
34 58 34 53 0 -18 -83 -170 -142 -257 -35 -53 -63 -101 -60 -108 2 -7 8 -10
13 -6 5 3 5 -6 -1 -21 -9 -24 -8 -25 17 -19 l26 7 -19 -33 c-25 -42 -183 -210
-197 -210 -7 1 1 12 18 25 16 13 26 27 23 30 -4 4 -21 -7 -38 -24 -18 -17 -38
-28 -44 -25 -6 3 -3 -1 6 -9 10 -8 14 -18 10 -22 -11 -12 19 5 56 33 18 14 35
22 38 19 11 -11 -69 -87 -157 -148 -121 -85 -134 -96 -74 -63 28 15 83 44 123
66 l74 38 132 -6 c132 -7 133 -7 180 21 26 15 50 34 53 41 2 7 -3 29 -13 49
-9 20 -20 50 -24 68 -8 32 -8 31 -9 -10 -1 -23 -4 -49 -8 -59 -5 -14 -3 -16
11 -11 14 6 17 3 12 -9 -3 -8 -6 -20 -6 -25 0 -16 -39 -49 -57 -49 -17 1 -17
1 0 14 17 13 15 15 -22 21 -23 4 -41 12 -41 18 -1 7 -8 0 -16 -15 -10 -20 -23
-28 -42 -28 -15 0 -38 -3 -52 -7 -20 -4 -16 1 18 26 44 33 53 60 26 81 -13 11
-16 10 -21 -8 -5 -21 -23 -31 -23 -13 0 20 33 85 37 73 5 -14 21 11 69 108 23
45 29 51 32 33 2 -16 10 -23 27 -23 13 0 27 -4 30 -10 12 -19 30 -10 42 23 96
268 112 361 93 523 -6 53 -18 120 -26 150 -21 83 -18 128 13 175 24 37 25 42
10 50 -13 8 -14 14 -5 34 6 14 15 25 20 25 13 0 9 55 -6 76 -14 18 -15 18 -27
-14 -11 -33 -43 -59 -53 -43 -3 4 -2 11 2 15 17 17 6 62 -22 88 -24 23 -27 30
-16 43 7 8 17 12 23 8 6 -4 7 -1 3 6 -5 7 -2 26 4 42 11 25 10 32 -5 49 -24
27 -30 25 -45 -10 -7 -16 -15 -30 -19 -30 -3 0 -24 33 -46 72 -141 252 -419
528 -750 743 -139 90 -234 144 -412 234 -142 72 -177 100 -108 87 27 -5 35 -4
35 7 0 17 -21 27 -56 27 -17 0 -24 -6 -24 -20 0 -27 -13 -26 -108 15 -176 74
-646 224 -660 211 -6 -7 -1 -8 120 -41 133 -35 426 -136 556 -191 422 -180
734 -373 1015 -627 53 -49 97 -93 97 -99 0 -6 -35 23 -77 63 -110 105 -250
216 -330 263 -30 17 -9 -3 35 -34 253 -180 486 -421 615 -636 54 -90 113 -246
133 -349 19 -106 14 -283 -10 -355 -9 -25 -13 -31 -10 -15 29 151 31 224 9
349 -32 183 -138 392 -285 561 -58 67 -82 90 -60 60 14 -18 14 -19 -2 -6 -10
7 -18 19 -19 25 0 14 -130 122 -142 118 -4 -1 -6 1 -4 5 2 5 -5 17 -16 28 -11
12 -17 14 -13 5 4 -8 -2 -3 -14 13 -12 15 -26 27 -31 27 -8 0 -71 45 -122 86
-9 8 -21 14 -26 14 -4 0 -20 11 -35 25 -14 13 -27 24 -29 23 -1 -1 -30 15 -65
35 -35 20 -67 37 -72 37 -4 0 -10 3 -12 8 -3 8 -45 30 -210 113 -65 33 -122
59 -128 59 -5 0 -10 5 -10 10 0 6 -6 10 -14 10 -14 0 -105 38 -168 70 -21 11
-38 17 -38 14 0 -3 -17 5 -37 18 -21 12 -39 22 -40 20 -10 -8 -33 0 -27 10 5
8 0 9 -14 6 -13 -4 -20 -2 -16 4 3 5 0 8 -7 7 -8 -1 -21 0 -29 3 -8 3 -31 10
-50 17 -19 7 -40 13 -47 15 -7 1 -16 5 -19 9 -4 4 -16 7 -26 7 -12 0 -16 4
-12 12 4 7 3 8 -4 4 -17 -10 -63 4 -55 18 4 7 2 7 -7 -1 -8 -7 -19 -9 -29 -4
-17 10 -23 11 -47 11 -8 0 -13 4 -10 9 4 5 -4 7 -16 3 -11 -3 -19 -1 -16 4 4
5 -8 9 -25 10 -39 0 -60 6 -69 19 -10 13 -10 -47 0 -61 4 -6 23 -15 42 -19 19
-4 96 -27 170 -52 443 -146 864 -360 1161 -591 134 -104 314 -274 366 -345 21
-29 41 -54 45 -55 5 -2 6 -8 2 -13 -3 -5 -1 -9 5 -9 6 0 23 -21 38 -47 15 -27
31 -49 35 -51 4 -2 4 -10 1 -19 -4 -11 -2 -14 5 -9 7 4 14 -3 18 -19 3 -14 10
-25 15 -25 5 0 9 -7 9 -15 0 -8 4 -24 10 -35 6 -11 14 -29 20 -39 25 -52 61
-162 64 -201 1 -14 4 -30 7 -35 7 -12 12 -92 11 -165 -1 -52 -3 -74 -18 -165
-8 -49 -61 -191 -84 -225 -32 -48 -34 -56 -9 -35 13 11 6 0 -16 -25 -262 -290
-705 -477 -1320 -557 -198 -26 -774 -25 -985 0 -605 75 -1119 218 -1588 443
-720 345 -1200 822 -1288 1282 -17 88 -17 91 -3 72 9 -13 10 -12 5 3 -7 20 9
149 23 187 40 109 67 169 96 214 122 191 286 331 532 454 97 49 101 50 125 34
32 -22 61 -44 302 -232 195 -153 539 -414 656 -498 34 -25 65 -40 71 -36 7 4
9 3 5 -4 -3 -6 10 -23 31 -39 21 -15 40 -30 43 -33 3 -3 29 -21 57 -40 29 -19
53 -38 53 -42 0 -5 4 -8 10 -8 9 0 57 -33 130 -91 14 -10 63 -46 110 -79 47
-33 105 -74 129 -92 25 -17 50 -31 57 -31 7 0 10 -6 7 -14 -3 -7 0 -13 6 -13
11 0 109 -69 139 -97 7 -7 17 -13 20 -13 4 0 18 -10 32 -23 14 -12 41 -32 60
-44 19 -12 44 -30 55 -40 11 -10 32 -26 48 -36 21 -14 27 -25 27 -53 0 -29 9
-45 44 -81 24 -24 48 -45 53 -45 4 0 18 -4 31 -9 39 -15 67 -10 90 14 12 13
22 27 22 33 0 5 -5 2 -10 -6 -8 -12 -10 -10 -10 8 0 14 -4 21 -11 17 -6 -4 -9
-1 -7 6 3 13 -83 109 -96 109 -3 0 -6 -9 -6 -20 0 -20 -32 -44 -44 -33 -12 13
-5 43 13 52 13 8 17 18 13 37 -5 25 -6 26 -18 10 -8 -11 -18 -15 -26 -10 -9 6
-9 2 2 -12 11 -14 8 -14 -11 4 -14 12 -29 22 -33 22 -8 0 -65 39 -81 56 -5 5
-28 22 -50 37 -33 22 -134 99 -195 150 -43 36 -81 58 -90 52 -6 -3 -7 1 -4 9
4 10 1 16 -9 16 -8 0 -17 7 -21 15 -3 8 -13 15 -21 15 -10 0 -13 5 -9 13 4 6
4 9 -1 5 -4 -4 -13 -2 -20 5 -6 7 -27 23 -45 37 -18 14 -57 44 -86 68 -29 23
-58 42 -64 42 -6 0 -8 5 -5 10 3 6 1 10 -4 10 -10 0 -36 19 -66 48 -8 6 -16
12 -20 12 -7 0 -28 17 -64 53 -16 15 -33 27 -38 27 -6 0 -16 7 -23 15 -7 8
-17 12 -23 8 -5 -3 -7 -2 -4 4 3 5 -3 17 -14 26 -10 9 -19 14 -19 12 0 -5 -29
19 -114 97 -23 21 -49 38 -59 38 -10 0 -16 4 -13 8 3 5 -15 21 -39 37 -25 15
-42 31 -39 36 3 5 -3 6 -12 2 -13 -5 -15 -3 -9 7 5 9 4 11 -3 6 -7 -4 -12 -2
-12 4 0 6 -4 9 -9 5 -5 -3 -13 4 -16 16 -4 11 -9 18 -12 15 -4 -3 -30 14 -59
39 -29 25 -56 45 -61 45 -4 0 -14 9 -21 20 -7 11 -18 20 -25 20 -6 0 -23 12
-36 25 -12 14 -28 22 -34 18 -6 -3 -7 -1 -3 5 4 7 4 12 -1 12 -4 0 -22 13 -40
28 -17 15 -47 38 -65 52 -35 27 -190 149 -223 176 -11 9 -35 25 -52 36 -18 11
-33 22 -33 25 0 2 6 1 13 -3 8 -5 8 -3 -2 9 -7 9 -17 14 -22 12 -4 -3 -12 3
-18 12 -6 10 -11 15 -11 11 0 -4 -14 6 -32 22 -17 16 -36 26 -42 23 -6 -3 -8
-3 -4 2 8 9 -15 35 -31 35 -6 0 -11 5 -11 10 0 6 -7 10 -15 10 -8 0 -15 4 -15
8 0 4 -14 16 -30 26 -17 9 -27 22 -24 28 4 7 2 8 -4 4 -6 -4 -18 8 -28 29 -9
20 -19 33 -22 31 -3 -3 1 -12 8 -21 23 -28 6 -24 -27 5 -28 25 -30 31 -17 38
15 8 15 10 -1 15 -9 4 -13 12 -10 17 4 6 3 10 -2 9 -13 -3 -43 12 -43 23 0 5
5 6 12 2 7 -4 8 -3 4 5 -4 6 -11 9 -16 6 -4 -3 -18 7 -29 22 -16 21 -20 23
-15 8 l6 -20 -13 20 c-16 26 -22 31 -94 85 -33 25 -66 53 -73 63 -7 9 -18 17
-25 17 -6 0 -23 12 -38 26 -15 15 -38 32 -51 39 -13 6 -22 17 -20 24 1 7 -2
10 -7 7 -5 -4 -22 6 -37 21 -15 16 -21 19 -13 9 10 -15 11 -18 1 -12 -7 4 -18
19 -23 33 -8 21 -12 23 -24 13 -13 -11 -14 -10 -9 6 4 10 4 16 -1 12 -4 -4
-16 3 -26 15 -10 12 -18 18 -19 13 0 -6 -7 -1 -16 10 -8 10 -12 13 -8 5 5 -9
3 -12 -4 -7 -7 4 -12 14 -12 23 0 9 -3 13 -7 10 -3 -4 -12 1 -20 11 -10 11
-12 12 -8 2 4 -8 -1 -6 -9 4 -9 11 -16 17 -16 13 0 -3 -15 7 -32 24 -18 16
-36 29 -41 29 -4 0 -6 4 -3 9 3 4 -3 8 -14 7 -11 0 -19 -5 -18 -11 2 -5 6 -9
9 -8 3 1 6 -4 6 -12 0 -11 -179 118 -225 162 -7 7 -17 13 -21 13 -4 0 -16 8
-27 18 -10 9 -36 30 -57 45 -33 25 -36 31 -25 45 8 10 8 13 1 9 -6 -4 -13 -4
-16 0 -2 5 -2 2 -1 -4 5 -19 -9 -16 -29 7 -20 24 -22 34 -4 24 8 -5 8 -2 -2 9
-14 18 -23 22 -19 10 2 -5 -1 -9 -7 -9 -13 -2 -46 21 -40 27 2 3 -11 13 -30
24 -19 10 -35 22 -35 27 0 5 14 -1 32 -13 17 -13 28 -16 23 -8 -5 7 -16 19
-25 26 -10 7 -50 40 -90 73 -75 62 -143 106 -82 52 17 -16 32 -34 32 -41 0 -7
5 -9 10 -6 6 3 10 1 10 -4 0 -6 6 -11 13 -11 7 0 22 -10 33 -23 31 -35 39 -56
10 -24 -14 15 -26 25 -26 22 0 -9 -129 92 -153 119 -10 12 -16 14 -12 6 4 -10
2 -10 -8 2 -17 22 -56 19 -69 -5z m873 -604 c13 -16 12 -17 -3 -4 -10 7 -18
15 -18 17 0 8 8 3 21 -13z m610 -470 c13 -16 12 -17 -3 -4 -10 7 -18 15 -18
17 0 8 8 3 21 -13z m30 -16 c-6 -8 -7 -18 -3 -22 4 -5 1 -5 -6 -1 -10 6 -10
11 -1 22 6 8 14 14 16 14 3 0 0 -6 -6 -13z m65 -55 c10 -7 14 -10 7 -7 -6 3
-14 -1 -16 -7 -3 -7 -6 -5 -6 6 -1 11 -4 17 -7 13 -8 -7 -34 17 -34 32 0 6 8
3 18 -6 10 -10 27 -24 38 -31z m-13 -67 c-3 -9 -8 -14 -10 -11 -3 3 -2 9 2 15
9 16 15 13 8 -4z m57 -29 c0 -2 -8 -10 -17 -17 -16 -13 -17 -12 -4 4 13 16 21
21 21 13z m161 -123 c13 -16 12 -17 -3 -4 -17 13 -22 21 -14 21 2 0 10 -8 17
-17z m-33 -60 l45 -37 -78 -37 c-44 -21 -83 -35 -89 -32 -5 3 -6 2 -3 -4 5 -8
-105 -68 -125 -68 -3 0 -10 -4 -15 -9 -5 -5 -2 -6 7 -2 8 4 6 0 -5 -8 -11 -9
-25 -14 -33 -11 -7 2 -10 0 -7 -5 6 -9 -8 -14 -28 -11 -5 1 -6 -3 -2 -9 3 -5
-5 -15 -19 -22 -14 -6 -26 -15 -26 -21 0 -5 -7 -7 -15 -4 -8 4 -17 1 -21 -5
-5 -7 -2 -8 7 -3 12 8 12 6 0 -8 -7 -9 -18 -14 -24 -10 -7 4 -8 0 -3 -12 6
-16 4 -16 -11 -4 -11 9 -14 10 -9 2 4 -8 1 -13 -8 -13 -10 0 -13 -6 -9 -17 4
-10 2 -14 -4 -10 -25 16 -132 -141 -179 -260 -12 -32 -13 -33 -9 -8 9 47 79
188 126 252 66 90 187 219 248 265 49 37 228 148 239 148 3 0 25 -17 50 -37z
m657 -431 c-3 -3 0 -11 6 -19 17 -20 5 -16 -14 5 -15 16 -15 19 -2 19 8 0 13
-3 10 -5z m69 -68 c3 -8 2 -12 -4 -9 -6 3 -10 10 -10 16 0 14 7 11 14 -7z m71
-52 c2 -14 0 -20 -6 -16 -6 3 -8 9 -5 12 4 3 -1 17 -10 31 -15 24 -15 25 0 10
9 -8 18 -25 21 -37z m22 -24 c-3 -8 -6 -5 -6 6 -1 11 2 17 5 13 3 -3 4 -12 1
-19z m64 -25 c13 -16 12 -17 -3 -4 -10 7 -18 15 -18 17 0 8 8 3 21 -13z m32
-46 c4 3 7 4 7 1 0 -3 -8 -12 -17 -19 -10 -7 -15 -9 -11 -5 4 5 2 16 -5 25
-10 14 -10 14 4 4 9 -7 19 -10 22 -6z m53 -19 c4 -7 3 -8 -4 -4 -7 4 -12 2
-12 -5 0 -7 -3 -10 -6 -6 -6 5 3 27 11 27 2 0 7 -5 11 -12z m-39 -13 c0 -8 -4
-12 -9 -9 -5 3 -6 10 -3 15 9 13 12 11 12 -6z m63 -31 c0 -8 -19 -13 -24 -6
-3 5 1 9 9 9 8 0 15 -2 15 -3z m25 -34 c10 -11 16 -20 13 -20 -3 0 -13 9 -23
20 -10 11 -16 20 -13 20 3 0 13 -9 23 -20z m43 -12 c-2 -7 3 -12 10 -10 8 1
11 -2 7 -8 -5 -8 -11 -8 -21 1 -7 6 -11 15 -8 20 8 13 14 11 12 -3z m65 -63
c-9 -16 -11 -16 -16 -1 -4 10 -3 15 3 11 16 -10 12 6 -7 29 -16 20 -16 20 6 0
18 -17 21 -26 14 -39z m3267 0 c13 -14 21 -25 18 -25 -2 0 -15 11 -28 25 -13
14 -21 25 -18 25 2 0 15 -11 28 -25z m-3224 -20 c0 -14 -4 -25 -8 -25 -6 0 -5
25 1 48 3 10 7 -2 7 -23z m73 -52 c14 11 14 10 2 -6 -10 -13 -17 -15 -27 -6
-8 6 -14 14 -14 17 0 3 5 1 12 -6 9 -9 15 -9 27 1z m42 -30 c13 -16 12 -17 -3
-4 -10 7 -18 15 -18 17 0 8 8 3 21 -13z m56 -58 c0 -8 -4 -12 -9 -9 -5 3 -6
10 -3 15 9 13 12 11 12 -6z m66 -33 c4 9 6 9 6 1 2 -20 -16 -24 -30 -5 -13 15
-12 16 3 4 13 -10 17 -10 21 0z m92 -73 c11 -16 1 -19 -13 -3 -7 8 -8 14 -3
14 5 0 13 -5 16 -11z m159 -125 c3 -8 2 -12 -4 -9 -6 3 -10 10 -10 16 0 14 7
11 14 -7z m-2301 -160 c7 -8 -13 -54 -25 -54 -10 0 -11 44 -1 53 8 9 18 9 26
1z m-68 -114 c3 -5 1 -10 -4 -10 -6 0 -11 5 -11 10 0 6 2 10 4 10 3 0 8 -4 11
-10z m-127 -213 c27 -18 67 -68 118 -145 156 -237 313 -397 594 -604 63 -46
278 -248 264 -248 -23 0 -276 176 -426 297 -210 168 -347 318 -484 529 -42 65
-97 145 -121 176 -50 66 -54 79 -14 46 16 -12 47 -35 69 -51z m-243 33 c3 -6
-1 -7 -9 -4 -18 7 -21 14 -7 14 6 0 13 -4 16 -10z m234 -106 c11 -4 11 -8 -2
-27 -13 -20 -21 -22 -87 -19 -41 2 -84 8 -97 13 -29 11 -30 36 0 41 25 5 165
-1 186 -8z m-66 -117 c-4 -7 -8 -28 -9 -47 -1 -19 -5 -51 -8 -70 -17 -118 -42
-374 -50 -515 -2 -33 -2 12 -1 100 2 88 6 168 10 178 4 9 3 17 -2 17 -5 0 -27
-33 -49 -74 -21 -41 -40 -73 -42 -71 -2 1 4 47 13 101 17 107 45 205 77 267
13 26 18 50 14 69 -8 39 8 68 34 61 11 -3 17 -10 13 -16z m744 -435 c138 -95
203 -151 203 -175 0 -14 -5 -15 -27 -6 -66 25 -285 208 -315 263 -13 23 -15
25 139 -82z m-814 -454 c-2 -5 -5 -8 -8 -8 -3 0 -18 0 -35 0 -16 0 -30 4 -30
9 0 5 17 8 38 8 20 -1 36 -5 35 -9z m67 2 c0 -5 -7 -10 -15 -10 -8 0 -15 5
-15 10 0 6 7 10 15 10 8 0 15 -4 15 -10z m3948 -47 c-27 -2 -69 -2 -95 0 -27
2 -5 3 47 3 52 0 74 -1 48 -3z m-4047 -73 c31 0 39 -17 14 -26 -22 -9 -205 6
-205 16 0 13 40 19 104 14 32 -2 72 -4 87 -4z m-210 -180 c-8 -43 -9 -44 -10
-10 -1 39 11 94 16 70 2 -8 -1 -35 -6 -60z m49 59 c0 -5 -4 -8 -9 -5 -5 4 -12
0 -14 -6 -3 -8 -6 -6 -6 5 -1 9 6 17 14 17 8 0 15 -5 15 -11z m1440 3 c0 -4
-5 -13 -10 -18 -11 -11 44 -104 62 -104 5 0 8 -26 6 -59 -1 -33 -5 -58 -7 -55
-2 2 -10 -1 -18 -7 -34 -29 -163 3 -163 40 0 8 -3 11 -7 8 -11 -12 -52 67 -53
101 0 55 16 74 55 68 28 -5 33 -3 29 9 -7 18 27 21 56 5 13 -7 19 -6 24 5 6
16 26 21 26 7z m-1190 -32 c8 -5 12 -11 10 -14 -3 -2 -14 2 -24 10 -22 15 -10
19 14 4z m5358 -39 c-7 -2 -20 -9 -28 -15 -12 -8 -11 -6 1 9 9 11 14 27 12 35
-3 9 2 7 12 -5 12 -15 13 -21 3 -24z m-5635 -73 c-9 -35 -17 -69 -19 -76 -5
-18 -24 -5 -24 16 0 18 46 122 53 122 3 0 -2 -28 -10 -62z m5607 25 c0 -10 3
-47 5 -83 3 -36 2 -58 -1 -50 -3 8 -8 22 -11 30 -3 8 -11 -8 -19 -37 -18 -68
-68 -196 -72 -184 -2 5 4 23 12 40 9 17 17 42 18 56 1 14 6 25 11 25 5 0 7 8
5 18 -3 10 1 23 7 29 7 6 12 25 10 42 -1 17 2 29 8 28 6 -1 11 7 11 18 0 11 5
23 11 27 6 5 6 8 -2 8 -6 0 -10 8 -8 18 2 9 4 20 4 25 2 14 10 7 11 -10z
m-4119 -173 c-17 -3 -32 -8 -31 -12 0 -5 0 -12 0 -17 0 -5 8 -12 18 -14 9 -3
4 -5 -13 -6 -16 0 -42 7 -57 17 -24 16 -26 21 -15 35 14 19 95 27 116 12 11
-8 7 -11 -18 -15z m-1421 10 c8 -5 11 -10 5 -10 -5 0 -17 5 -25 10 -8 5 -10
10 -5 10 6 0 17 -5 25 -10z m3983 -72 c-6 -29 -24 -108 -30 -130 -6 -26 -24
-22 -21 5 2 12 -1 23 -7 25 -5 1 -11 -9 -13 -23 -4 -28 -29 -34 -39 -9 -3 9 2
43 11 75 9 33 14 64 11 70 -4 5 15 9 43 9 47 0 50 -2 45 -22z m-2589 -66 c-3
-15 -16 -83 -29 -152 -31 -163 -48 -356 -40 -447 7 -72 6 -73 -20 -83 -14 -5
-37 -7 -51 -4 -18 5 -24 2 -24 -10 0 -14 6 -16 35 -10 27 5 36 3 41 -11 11
-27 -12 -41 -46 -28 -24 9 -33 8 -49 -6 -20 -17 -20 -18 5 -58 13 -22 31 -43
39 -47 20 -7 20 -75 -1 -104 -12 -18 -23 -22 -47 -18 -17 3 -35 12 -39 21 -5
8 -13 13 -19 10 -5 -4 -9 -1 -9 4 0 6 -5 11 -11 11 -14 0 -39 26 -39 40 0 6
-4 9 -8 6 -4 -2 -14 9 -21 26 -10 21 -16 26 -22 17 -4 -8 -7 2 -5 23 4 48 12
58 47 58 16 0 29 4 29 9 0 5 15 6 34 1 32 -7 34 -6 54 36 21 43 21 44 2 54
-30 16 -34 46 -11 79 55 77 103 248 126 452 20 173 22 181 37 191 20 12 48
-27 42 -60z m4041 -51 c3 -5 2 -12 -3 -15 -5 -3 -9 1 -9 9 0 17 3 19 12 6z
m-1517 -99 c20 -31 1 -27 -22 5 -12 16 -14 24 -6 21 7 -2 20 -14 28 -26z m27
19 c3 -5 1 -12 -5 -16 -5 -3 -10 1 -10 9 0 18 6 21 15 7z m1141 -168 c-10 -10
-19 5 -10 18 6 11 8 11 12 0 2 -7 1 -15 -2 -18z m108 -112 c14 -16 15 -19 2
-24 -9 -4 -16 3 -19 19 -5 29 -5 29 17 5z m65 -60 c-15 -5 -22 6 -14 19 6 9
10 9 16 -1 5 -8 4 -15 -2 -18z m-4070 -230 c-15 -5 -22 6 -14 19 6 9 10 9 16
-1 5 -8 4 -15 -2 -18z m3816 7 c-13 -42 -47 -118 -54 -118 -3 0 -6 20 -6 45 1
32 7 51 25 70 29 31 44 32 35 3z m89 -24 c24 -23 20 -55 -13 -105 -39 -60 -78
-105 -84 -99 -7 7 65 220 74 220 4 0 15 -7 23 -16z m-3618 -172 c-10 -2 -16
-11 -15 -20 1 -9 1 -24 0 -32 -1 -13 -3 -13 -11 1 -5 9 -7 32 -3 53 6 36 6 36
25 19 18 -16 18 -18 4 -21z m3825 -23 c-6 -18 -11 -45 -11 -60 0 -16 -5 -29
-11 -29 -13 0 -7 59 10 104 15 39 26 25 12 -15z m-3961 11 c0 -5 -5 -10 -11
-10 -5 0 -7 5 -4 10 3 6 8 10 11 10 2 0 4 -4 4 -10z m-24 -32 c5 -7 3 -8 -6
-3 -10 6 -12 4 -7 -9 4 -10 3 -15 -3 -11 -6 3 -10 1 -10 -6 0 -7 -3 -10 -6 -7
-5 6 13 48 21 48 2 0 7 -5 11 -12z m-191 -53 c16 -10 17 -17 7 -74 -6 -35 -14
-66 -17 -69 -11 -11 -54 42 -54 67 -1 14 -4 50 -7 80 l-6 55 30 -25 c16 -13
37 -29 47 -34z m173 -41 c1 0 -5 -15 -14 -33 -9 -18 -14 -41 -11 -52 3 -12 -2
-23 -14 -29 -23 -13 -23 -10 -8 77 10 57 13 62 28 51 9 -7 17 -13 19 -14z
m3522 -33 c0 -21 -119 -100 -246 -164 -101 -50 -310 -130 -328 -124 -6 2 12
11 39 21 52 17 149 73 106 61 -127 -37 -157 -45 -166 -45 -5 1 50 23 123 50
73 27 204 85 290 129 156 79 182 89 182 72z m80 -6 c-7 -8 -17 -15 -23 -15 -6
0 -2 7 9 15 25 19 30 19 14 0z m-1413 -72 c-4 -3 -2 -11 3 -18 7 -8 5 -12 -5
-12 -8 0 -15 9 -15 19 0 10 5 18 12 18 6 0 8 -3 5 -7z m-2270 -25 c-3 -8 -6
-5 -6 6 -1 11 2 17 5 13 3 -3 4 -12 1 -19z m438 -109 c5 -5 -5 -4 -23 2 -17 6
-32 13 -32 16 0 7 43 -8 55 -18z m45 -14 c0 -12 -19 -12 -23 0 -4 9 -1 12 9 8
7 -3 14 -7 14 -8z m45 -14 c18 -7 17 -8 -6 -13 -17 -3 -26 0 -26 9 0 15 3 15
32 4z m2950 -11 c-3 -5 -14 -10 -23 -11 -11 0 -12 -3 -4 -6 6 -2 12 -11 12
-20 0 -12 -2 -12 -16 1 -16 17 -39 12 -28 -5 3 -5 9 -7 14 -4 4 3 10 -2 13
-10 4 -9 1 -12 -9 -8 -9 3 -14 -1 -15 -13 0 -13 -2 -14 -6 -5 -5 11 -7 11 -14
0 -7 -11 -9 -9 -9 7 0 11 -5 25 -11 31 -8 8 4 17 43 31 64 25 61 24 53 12z
m-2890 -10 c13 -6 15 -9 5 -9 -8 0 -22 4 -30 9 -18 12 -2 12 25 0z m2924 7
c-2 -1 -13 -9 -24 -17 -19 -14 -19 -14 -6 3 7 9 18 17 24 17 6 0 8 -1 6 -3z
m-2954 -25 c-3 -3 -11 0 -18 7 -9 10 -8 11 6 5 10 -3 15 -9 12 -12z m236 -89
c13 -16 12 -17 -3 -4 -17 13 -22 21 -14 21 2 0 10 -8 17 -17z m153 -35 c-4 -5
-9 -7 -12 -4 -3 3 -12 0 -21 -7 -14 -10 -14 -10 -4 4 13 16 46 23 37 7z m497
-153 c6 17 7 16 6 -7 -1 -21 -4 -24 -14 -16 -7 6 -12 18 -12 27 1 11 3 10 7
-4 l5 -20 8 20z m66 -27 c-3 -7 -5 -2 -5 12 0 14 2 19 5 13 2 -7 2 -19 0 -25z
m370 -70 c-3 -8 -6 -5 -6 6 -1 11 2 17 5 13 3 -3 4 -12 1 -19z"/>
<path d="M3045 2230 c3 -5 8 -10 11 -10 2 0 4 5 4 10 0 6 -5 10 -11 10 -5 0
-7 -4 -4 -10z"/>
<path d="M6460 1511 c0 -10 19 -25 25 -20 1 2 -3 10 -11 17 -8 7 -14 8 -14 3z"/>
<path d="M1750 7406 c0 -2 8 -10 18 -17 15 -13 16 -12 3 4 -13 16 -21 21 -21
13z"/>
<path d="M1865 7320 c10 -11 20 -20 23 -20 3 0 -3 9 -13 20 -10 11 -20 20 -23
20 -3 0 3 -9 13 -20z"/>
<path d="M1906 7287 c3 -10 9 -15 12 -12 3 3 0 11 -7 18 -10 9 -11 8 -5 -6z"/>
<path d="M1945 7253 c11 -11 22 -19 24 -17 2 2 13 -8 24 -22 11 -15 25 -23 34
-19 11 3 13 1 9 -10 -7 -20 8 -19 25 2 8 10 9 14 2 10 -7 -4 -16 0 -22 10 -6
11 -11 13 -11 5 0 -7 -5 -10 -10 -7 -6 4 -7 11 -4 17 4 6 2 8 -4 4 -6 -3 -13
-2 -17 4 -3 6 -21 17 -38 26 -32 16 -32 16 -12 -3z"/>
<path d="M3813 6563 c9 -2 23 -2 30 0 6 3 -1 5 -18 5 -16 0 -22 -2 -12 -5z"/>
<path d="M3758 6553 c7 -3 16 -2 19 1 4 3 -2 6 -13 5 -11 0 -14 -3 -6 -6z"/>
<path d="M5258 6503 c7 -3 16 -2 19 1 4 3 -2 6 -13 5 -11 0 -14 -3 -6 -6z"/>
<path d="M5580 6430 c8 -5 22 -9 30 -9 10 0 8 3 -5 9 -27 12 -43 12 -25 0z"/>
<path d="M2465 6141 c-3 -5 -1 -12 5 -16 5 -3 10 1 10 9 0 18 -6 21 -15 7z"/>
<path d="M2437 6134 c-10 -11 -8 -52 3 -59 6 -3 10 -2 10 4 0 6 7 8 15 5 8 -4
15 -2 15 2 -1 16 -36 55 -43 48z"/>
<path d="M2401 6039 c-13 -37 -14 -69 -3 -69 4 0 23 13 42 30 l35 30 -25 20
c-33 26 -36 25 -49 -11z"/>
<path d="M5531 5300 c10 -7 49 -2 49 5 0 2 -14 3 -31 3 -17 -1 -25 -4 -18 -8z"/>
<path d="M7747 5173 c-16 -4 -15 -7 7 -24 18 -14 33 -18 52 -13 l27 7 -22 19
c-23 18 -31 20 -64 11z"/>
<path d="M1933 4984 c-13 -14 -23 -31 -23 -37 0 -23 17 -38 33 -31 19 7 23 29
7 39 -5 3 -10 12 -10 18 0 9 2 9 8 0 7 -11 52 -7 52 5 0 5 -32 31 -40 32 -3 0
-15 -12 -27 -26z"/>
<path d="M7760 4990 c0 -5 5 -10 11 -10 5 0 7 5 4 10 -3 6 -8 10 -11 10 -2 0
-4 -4 -4 -10z"/>
<path d="M7810 4969 c0 -11 5 -17 10 -14 6 3 10 13 10 21 0 8 -4 14 -10 14 -5
0 -10 -9 -10 -21z"/>
<path d="M1910 4885 c0 -8 7 -15 15 -15 8 0 15 4 15 9 0 5 -7 11 -15 15 -9 3
-15 0 -15 -9z"/>
<path d="M2024 4881 c4 -5 -2 -15 -11 -20 -17 -10 -17 -12 1 -26 11 -8 30 -15
44 -15 20 0 23 4 20 33 -3 27 -7 33 -32 35 -17 2 -26 0 -22 -7z"/>
<path d="M2070 4805 c0 -2 14 -11 30 -20 30 -16 40 -9 18 13 -12 12 -48 17
-48 7z"/>
<path d="M7810 4636 c0 -14 5 -28 10 -31 6 -3 10 5 10 19 0 14 -4 28 -10 31
-6 3 -10 -5 -10 -19z"/>
<path d="M1850 4344 c0 -16 5 -24 13 -22 18 7 20 35 2 41 -11 5 -15 0 -15 -19z"/>
<path d="M7409 3907 c-40 -37 -75 -88 -49 -72 5 3 7 -15 3 -47 -5 -48 -4 -51
10 -33 14 20 28 71 29 112 0 13 8 25 19 28 18 6 45 42 37 50 -2 2 -24 -15 -49
-38z"/>
<path d="M3496 3909 c-3 -17 -6 -43 -6 -56 0 -14 -7 -37 -16 -53 -10 -15 -14
-35 -11 -45 9 -21 27 -10 27 16 0 10 4 19 9 19 5 0 11 9 14 20 8 32 24 23 22
-12 -3 -35 -24 -89 -39 -100 -9 -6 63 -48 84 -48 5 0 10 7 10 16 0 9 11 29 25
46 27 32 32 53 14 64 -7 4 -8 20 -4 41 6 32 5 35 -14 30 -17 -4 -22 1 -26 27
-4 21 -16 37 -36 49 -41 23 -46 22 -53 -14z"/>
<path d="M3330 3839 c0 -4 -2 -13 -5 -21 -4 -9 5 -14 31 -15 55 -3 59 -11 58
-117 -1 -53 2 -96 6 -96 12 0 26 65 19 90 -4 14 -7 51 -8 82 -1 32 -6 60 -13
64 -18 12 -88 22 -88 13z"/>
<path d="M7594 3792 c-25 -21 -37 -62 -22 -79 6 -7 13 -13 17 -13 9 0 8 42 -2
58 -5 7 -4 12 2 12 6 0 15 9 21 20 13 24 11 24 -16 2z"/>
<path d="M7632 3738 c3 -7 19 -14 37 -16 24 -3 32 0 29 10 -3 7 -19 14 -37 16
-24 3 -32 0 -29 -10z"/>
<path d="M3440 3716 c0 -2 7 -6 15 -10 8 -3 15 -1 15 4 0 6 -7 10 -15 10 -8 0
-15 -2 -15 -4z"/>
<path d="M7628 3687 c12 -7 19 -16 16 -20 -4 -4 4 -7 17 -7 18 0 25 6 26 20 2
17 -4 20 -40 20 -39 -1 -41 -2 -19 -13z"/>
<path d="M3333 3636 c4 -14 57 -21 57 -8 0 5 -14 12 -30 14 -19 3 -29 1 -27
-6z"/>
<path d="M1773 3595 c-3 -9 -3 -18 0 -21 9 -9 27 6 27 22 0 19 -19 18 -27 -1z"/>
<path d="M3448 3604 c-5 -4 -8 -21 -8 -38 1 -26 2 -28 11 -13 11 19 8 63 -3
51z"/>
<path d="M3320 3590 c0 -5 16 -10 35 -10 19 0 35 5 35 10 0 6 -16 10 -35 10
-19 0 -35 -4 -35 -10z"/>
<path d="M4565 3585 c22 -8 49 -13 60 -13 11 0 -2 6 -30 14 -63 17 -84 16 -30
-1z"/>
<path d="M3343 3559 c11 -7 23 -7 35 0 14 9 11 10 -18 10 -29 0 -32 -1 -17
-10z"/>
<path d="M3398 3548 c-2 -6 -23 -12 -47 -14 -23 -1 -45 -4 -48 -7 -8 -8 41
-19 67 -15 23 3 62 48 42 48 -6 0 -12 -5 -14 -12z"/>
<path d="M7578 3549 c-20 -4 -53 -20 -73 -34 -35 -23 -36 -25 -13 -25 38 0
120 28 148 50 l25 20 -25 -1 c-14 -1 -41 -5 -62 -10z"/>
<path d="M6358 3503 c7 -3 16 -2 19 1 4 3 -2 6 -13 5 -11 0 -14 -3 -6 -6z"/>
<path d="M7489 3452 c-35 -21 -74 -42 -84 -46 -18 -8 -16 -10 15 -24 19 -8 63
-16 98 -17 41 -2 69 -8 81 -19 9 -9 30 -16 44 -16 31 0 30 0 17 -34 -13 -35
-4 -33 15 4 17 34 19 44 5 35 -5 -3 -10 -2 -10 3 0 10 26 37 55 57 l20 14 -20
7 c-71 25 -105 44 -105 61 -1 11 -8 4 -21 -19 -25 -49 -44 -50 -36 -3 3 19 3
35 -1 35 -4 0 -37 -17 -73 -38z m171 -62 c0 -5 -4 -10 -9 -10 -6 0 -13 5 -16
10 -3 6 1 10 9 10 9 0 16 -4 16 -10z"/>
<path d="M5703 3433 c-7 -2 -13 -11 -13 -18 0 -7 -7 -15 -15 -19 -19 -7 -20
-26 -2 -26 8 0 22 -9 32 -20 16 -18 16 -20 1 -36 -12 -11 -14 -20 -7 -27 6 -6
5 -14 -5 -24 -21 -21 -17 -52 9 -63 17 -7 9 -9 -33 -7 l-55 2 -3 64 c-3 54 0
66 17 83 23 20 27 38 11 38 -20 0 -80 -29 -102 -50 -38 -36 -120 -69 -183 -74
-64 -6 -307 15 -465 39 -52 8 -113 17 -135 20 -22 3 -47 8 -56 10 -9 3 -36 7
-60 10 -48 4 -97 13 -116 20 -7 2 -13 0 -13 -5 0 -6 10 -10 23 -11 12 0 29 -2
37 -4 36 -9 58 -15 111 -29 30 -8 69 -17 85 -20 16 -2 31 -5 34 -6 3 -1 14 -2
25 -1 18 1 19 1 2 -9 -21 -14 -237 24 -435 76 -138 37 -186 42 -84 9 76 -24
51 -31 -39 -10 -112 25 -92 11 33 -24 280 -77 545 -126 898 -166 236 -26 312
-41 413 -81 75 -30 73 -30 81 1 4 14 12 24 19 22 7 -1 13 10 15 26 2 15 7 25
12 22 5 -3 7 -12 3 -20 -3 -8 0 -15 6 -15 6 0 11 4 11 9 0 5 10 7 23 4 l22 -6
-24 26 c-13 15 -29 24 -34 20 -7 -4 -7 0 -2 13 4 10 9 53 10 94 2 41 10 95 19
119 9 24 16 45 16 47 0 6 -73 3 -87 -3z m-818 -173 c-11 -5 -29 -9 -40 -9 -17
-1 -17 1 -5 9 8 5 26 9 40 9 23 0 23 -1 5 -9z m55 -10 c-34 -11 -60 -11 -35 0
11 5 29 8 40 8 16 0 15 -2 -5 -8z m83 -7 c-7 -2 -21 -2 -30 0 -10 3 -4 5 12 5
17 0 24 -2 18 -5z m70 -10 c-7 -2 -19 -2 -25 0 -7 3 -2 5 12 5 14 0 19 -2 13
-5z m80 -10 c-7 -2 -19 -2 -25 0 -7 3 -2 5 12 5 14 0 19 -2 13 -5z m537 -53
c13 -8 12 -12 -6 -31 -19 -18 -25 -19 -45 -9 -31 17 -41 33 -26 42 17 11 59
10 77 -2z"/>
<path d="M4250 3405 c0 -3 99 -26 115 -27 2 0 28 -6 57 -14 64 -17 68 -17 68
-3 0 6 -6 9 -12 6 -7 -2 -22 1 -33 6 -20 11 -35 16 -70 22 -11 2 -20 4 -20 5
0 0 -24 3 -52 5 -29 2 -53 2 -53 0z"/>
<path d="M3735 3382 c6 -6 26 -13 45 -16 23 -5 30 -4 20 2 -23 14 -77 25 -65
14z"/>
<path d="M5803 3331 c3 -14 1 -31 -5 -39 -9 -10 -6 -18 12 -35 l24 -22 -18 23
c-22 25 -10 30 20 7 12 -9 31 -12 52 -8 l34 6 -6 -79 c-3 -44 -9 -92 -12 -108
-5 -20 -4 -27 5 -22 6 4 11 14 11 22 0 8 4 13 10 9 5 -3 6 -13 3 -23 -4 -9 9
0 29 20 43 43 109 69 262 105 188 43 179 52 -33 29 -192 -20 -197 -5 -6 21 94
12 213 34 265 47 52 14 76 23 53 20 -29 -4 -43 -2 -43 6 0 6 4 9 9 5 5 -3 12
-1 16 4 3 6 -5 8 -17 6 -13 -2 -81 -13 -153 -26 -124 -21 -310 -30 -381 -18
-17 3 -41 13 -54 22 -14 9 -29 17 -34 17 -5 0 -18 8 -29 18 -20 16 -20 16 -14
-7z"/>
<path d="M4190 3308 c0 -3 37 -18 83 -33 45 -15 105 -38 132 -51 28 -12 127
-39 220 -60 94 -21 175 -42 180 -47 7 -7 5 -7 -5 -2 -9 5 -12 4 -7 -1 5 -5 12
-9 15 -10 4 0 39 -5 77 -12 141 -24 403 -53 510 -57 l110 -4 -83 35 c-97 41
-128 47 -327 68 -283 31 -637 99 -882 172 -13 3 -23 4 -23 2z"/>
<path d="M4001 3296 c6 -6 284 -86 299 -86 29 0 -3 11 -143 50 -144 39 -164
44 -156 36z"/>
<path d="M7600 3290 c0 -5 7 -10 16 -10 8 0 12 5 9 10 -3 6 -10 10 -16 10 -5
0 -9 -4 -9 -10z"/>
<path d="M6320 3139 c-59 -10 -91 -28 -38 -22 31 4 29 3 -17 -21 -29 -15 -39
-23 -25 -21 85 16 276 57 279 61 3 3 -29 2 -70 -1 -50 -4 -68 -2 -54 4 l20 10
-20 -1 c-11 0 -45 -4 -75 -9z"/>
<path d="M6538 3143 c6 -2 18 -2 25 0 6 3 1 5 -13 5 -14 0 -19 -2 -12 -5z"/>
<path d="M7570 3140 c0 -5 5 -10 11 -10 5 0 7 5 4 10 -3 6 -8 10 -11 10 -2 0
-4 -4 -4 -10z"/>
<path d="M5840 3090 c0 -5 5 -10 11 -10 5 0 7 5 4 10 -3 6 -8 10 -11 10 -2 0
-4 -4 -4 -10z"/>
<path d="M5730 3079 c0 -5 -4 -8 -9 -4 -14 8 -25 -35 -11 -49 8 -8 10 -7 5 6
-4 11 1 21 14 30 22 14 28 28 11 28 -5 0 -10 -5 -10 -11z"/>
<path d="M5785 3050 c3 -5 18 -10 33 -11 l27 -1 -25 -8 c-21 -7 -19 -8 15 -8
22 0 35 2 28 4 -7 3 -9 12 -6 20 4 11 -4 14 -37 14 -25 0 -39 -4 -35 -10z"/>
<path d="M5908 2996 c-24 -18 -23 -25 2 -19 11 3 20 12 20 19 0 17 0 17 -22 0z"/>
<path d="M5430 2991 c8 -5 26 -12 40 -15 24 -7 24 -6 6 8 -11 9 -29 16 -40 16
-17 -1 -18 -2 -6 -9z"/>
<path d="M5772 2988 c7 -20 72 -22 88 -4 11 14 6 16 -40 16 -37 0 -50 -4 -48
-12z"/>
<path d="M7392 2670 c-17 -71 -26 -193 -13 -164 13 30 34 165 29 194 -3 19 -7
11 -16 -30z"/>
<path d="M5670 2435 c0 -9 9 -15 25 -15 16 0 25 6 25 15 0 9 -9 15 -25 15 -16
0 -25 -6 -25 -15z"/>
<path d="M7020 1795 c0 -20 8 -39 23 -53 31 -29 34 -28 43 10 3 18 13 43 22
56 l15 23 -51 -2 c-51 -3 -52 -3 -52 -34z"/>
<path d="M7140 1815 c-17 -10 -20 -14 -9 -15 9 0 22 7 29 15 15 18 12 18 -20
0z"/>
<path d="M3011 1804 c0 -11 3 -14 6 -6 3 7 2 16 -1 19 -3 4 -6 -2 -5 -13z"/>
<path d="M5430 1709 c0 -5 5 -7 10 -4 6 3 10 8 10 11 0 2 -4 4 -10 4 -5 0 -10
-5 -10 -11z"/>
<path d="M5487 1635 c-7 -16 8 -29 23 -20 10 6 2 35 -10 35 -4 0 -10 -7 -13
-15z"/>
<path d="M3775 1480 c3 -5 8 -10 11 -10 2 0 4 5 4 10 0 6 -5 10 -11 10 -5 0
-7 -4 -4 -10z"/>
<path d="M6427 1483 c-3 -5 -1 -17 4 -28 6 -17 7 -16 6 8 -1 28 -3 32 -10 20z"/>
<path d="M6374 1462 c3 -6 2 -13 -4 -17 -6 -4 -8 -11 -5 -16 4 -5 -1 -9 -9 -9
-8 0 -17 -4 -21 -10 -3 -5 9 -4 27 2 18 6 27 13 20 16 -9 3 -10 7 -2 17 8 10
8 15 -1 21 -7 4 -9 3 -5 -4z"/>
<path d="M6345 1449 c-4 -6 -5 -12 -2 -15 2 -3 7 2 10 11 7 17 1 20 -8 4z"/>
<path d="M6407 1453 c-10 -9 -9 -23 1 -23 5 0 9 7 9 15 0 17 -1 18 -10 8z"/>
<path d="M6229 1373 c-13 -16 -12 -17 4 -4 16 13 21 21 13 21 -2 0 -10 -8 -17
-17z"/>
<path d="M5407 1339 c7 -7 15 -10 18 -7 3 3 -2 9 -12 12 -14 6 -15 5 -6 -5z"/>
<path d="M4215 1330 c3 -5 8 -10 11 -10 2 0 4 5 4 10 0 6 -5 10 -11 10 -5 0
-7 -4 -4 -10z"/>
<path d="M6140 1311 c-8 -5 -40 -17 -70 -27 -30 -10 -49 -19 -42 -22 17 -5
108 27 122 44 14 16 12 17 -10 5z"/>
<path d="M4630 1235 c-7 -9 -10 -18 -6 -22 3 -3 6 0 6 8 1 10 4 9 11 -4 12
-20 29 -14 28 11 0 14 -2 13 -9 -3 -6 -14 -9 -16 -10 -5 -2 8 -2 18 -1 23 2
11 -5 8 -19 -8z"/>
<path d="M4681 1220 c-1 -24 12 -36 39 -35 14 1 30 -2 36 -7 7 -5 19 1 30 14
16 19 16 20 2 9 -17 -12 -23 -9 -19 12 1 5 -4 5 -11 1 -21 -14 -40 -13 -35 0
3 7 -1 13 -8 13 -7 0 -11 -6 -8 -14 3 -7 0 -13 -5 -13 -6 0 -13 8 -15 18 -3
12 -5 13 -6 2z"/>
<path d="M5786 1209 c2 -4 -20 -9 -49 -13 -62 -7 -93 -13 -127 -21 -14 -3 -47
-8 -73 -12 -50 -6 -68 -18 -39 -25 15 -4 102 13 277 53 67 15 85 26 42 25 -19
-1 -33 -4 -31 -7z"/>
<path d="M5214 1168 c-4 -7 -3 -8 5 -4 21 13 49 -4 56 -35 5 -21 10 -28 17
-21 6 6 17 8 25 5 13 -5 13 -2 -1 20 -10 14 -31 30 -48 36 -39 14 -45 14 -54
-1z"/>
<path d="M5182 1146 c14 -14 58 -17 58 -3 0 4 0 9 0 12 0 3 -9 1 -20 -5 -14
-7 -20 -7 -20 0 0 5 -7 10 -16 10 -13 0 -13 -2 -2 -14z"/>
</g>
</svg>
